<svg xmlns="http://www.w3.org/2000/svg" viewBox="0 0 900 900" role="img" aria-label="Profile image placeholder">
  <defs>
    <linearGradient id="bg" x1="0" y1="0" x2="900" y2="900"><stop stop-color="#eaf1ff"/><stop offset=".55" stop-color="#f8fbff"/><stop offset="1" stop-color="#e0fbff"/></linearGradient>
    <linearGradient id="card" x1="200" y1="200" x2="700" y2="790"><stop stop-color="#2563eb"/><stop offset="1" stop-color="#06b6d4"/></linearGradient>
    <filter id="shadow" x="-20%" y="-20%" width="140%" height="140%"><feDropShadow dx="0" dy="28" stdDeviation="34" flood-color="#0f172a" flood-opacity=".18"/></filter>
  </defs>
  <rect width="900" height="900" fill="url(#bg)"/>
  <circle cx="734" cy="164" r="102" fill="#2563eb" opacity=".10"/>
  <circle cx="134" cy="706" r="132" fill="#06b6d4" opacity=".10"/>
  <g opacity=".24" stroke="#2563eb" stroke-width="5" fill="none">
    <path d="M110 198h190m-96 0v134m398-92h196m-98 0v118M132 530h156m-78-78v156"/>
    <circle cx="300" cy="198" r="13" fill="#2563eb"/><circle cx="602" cy="240" r="13" fill="#2563eb"/><circle cx="798" cy="240" r="13" fill="#2563eb"/>
  </g>
  <g filter="url(#shadow)">
    <circle cx="450" cy="320" r="132" fill="url(#card)"/>
    <path d="M208 780c21-145 118-244 242-244s221 99 242 244H208z" fill="url(#card)"/>
    <circle cx="405" cy="294" r="16" fill="#fff" opacity=".9"/>
    <circle cx="495" cy="294" r="16" fill="#fff" opacity=".9"/>
    <path d="M382 369c42 38 95 38 136 0" stroke="#fff" stroke-width="18" stroke-linecap="round" fill="none" opacity=".9"/>
  </g>
  <rect x="244" y="742" width="412" height="76" rx="38" fill="#fff" opacity=".94"/>
  <text x="450" y="791" text-anchor="middle" font-size="26" font-family="Arial, sans-serif" font-weight="700" fill="#2563eb">Replace with your photo</text>
</svg>
